Coordinates
version=1
nRows=12
nColumns=24
inDegrees=yes

Units are S.I. units (second, meters, Newtons, ...)
Angles are in degrees.

endheader
time	pelvis_tilt	pelvis_list	pelvis_rotation	pelvis_tx	pelvis_ty	pelvis_tz	hip_flexion_r	hip_adduction_r	hip_rotation_r	knee_angle_r	ankle_angle_r	subtalar_angle_r	mtp_angle_r	hip_flexion_l	hip_adduction_l	hip_rotation_l	knee_angle_l	ankle_angle_l	subtalar_angle_l	mtp_angle_l	lumbar_extension	lumbar_bending	lumbar_rotation
      0.91233333	     -0.45571423	     -0.67984876	     -1.88247354	     -0.17305397	      0.97701231	      0.30646256	    -10.37833385	      4.52624792	     -1.48200192	    -12.08417744	     17.14373577	     -0.27115338	     -3.26319891	     27.43571427	      0.93736586	     -3.31217279	    -14.33581645	      0.44839522	     -5.63659720	     -0.99832868	      0.20186435	      4.16811440	      7.87932819
      0.91650000	     -0.52323331	     -0.59162106	     -1.87808220	     -0.16721745	      0.97640646	      0.30610075	    -10.30095297	      4.38965257	     -1.52839333	    -12.81282179	     17.20201042	     -0.22164452	     -3.19528543	     27.33279742	      1.13403700	     -3.18065150	    -14.29533351	      0.16108507	     -5.83550797	     -0.53819835	      0.32312335	      4.06493676	      7.94180390
      0.92066667	     -0.57704009	     -0.52414943	     -1.89621755	     -0.16138274	      0.97587793	      0.30580791	    -10.22363516	      4.28572807	     -1.43217387	    -13.57750206	     17.35660960	     -0.36070730	     -3.15463417	     27.22799313	      1.28537013	     -3.11599410	    -14.34798044	     -0.08934889	     -5.90332351	     -0.36998731	      0.42702495	      3.99398331	      7.93747721
      0.92483333	     -0.66849906	     -0.44995932	     -1.89313216	     -0.15554298	      0.97533079	      0.30547002	    -10.06627066	      4.17365571	     -1.38480666	    -14.41303172	     17.40818720	     -0.47460771	     -3.09013794	     27.16972589	      1.45987840	     -2.98464102	    -14.46316002	     -0.39880592	     -6.12944675	     -0.14503592	      0.57242635	      3.90656283	      7.96094818
      0.92900000	     -0.74676787	     -0.35750007	     -1.89610281	     -0.14965607	      0.97487809	      0.30514014	     -9.90012832	      4.04104232	     -1.31560029	    -15.29266253	     17.44319146	     -0.59622471	     -3.01962767	     27.06895733	      1.65030892	     -2.83937432	    -14.57369669	     -0.71992843	     -6.31953099	      0.04867698	      0.72200443	      3.79582089	      7.96610839
      0.93316667	     -0.82214769	     -0.25152050	     -1.87276995	     -0.14375095	      0.97444822	      0.30478945	     -9.71187508	      3.89748668	     -1.27731517	    -16.21621348	     17.39426851	     -0.75931008	     -2.96503049	     26.99739644	      1.85547873	     -2.72918260	    -14.79162510	     -1.03033905	     -6.48616444	      0.17366842	      0.85361002	      3.64980739	      7.95949214
      0.93733333	     -0.91670171	     -0.15956259	     -1.87215538	     -0.13786235	      0.97408171	      0.30442293	     -9.44834150	      3.76084490	     -1.21669092	    -17.23933839	     17.36296449	     -0.86570533	     -2.85336408	     26.90203525	      2.05467317	     -2.50908515	    -14.95395796	     -1.40005329	     -6.85621517	      0.37797747	      1.02316970	      3.56301054	      7.95418457
      0.94150000	     -1.00494271	     -0.06481457	     -1.84470608	     -0.13198225	      0.97373699	      0.30402848	     -9.15832839	      3.62165397	     -1.20255105	    -18.31653164	     17.24733166	     -0.95359398	     -2.66294882	     26.83113725	      2.26179651	     -2.30094335	    -15.20482667	     -1.76481336	     -7.25631876	      0.67002056	      1.17566954	      3.44872130	      7.93174974
      0.94566667	     -1.08102881	      0.05414990	     -1.81414526	     -0.12606347	      0.97346743	      0.30363156	     -8.84886438	      3.45343622	     -1.19713192	    -19.45031845	     17.08257414	     -1.05474915	     -2.42019922	     26.73763155	      2.48907828	     -2.11590760	    -15.46455055	     -2.11521044	     -7.61402921	      0.97778344	      1.31598901	      3.30310199	      7.89576731
      0.94983333	     -1.12868261	      0.18920372	     -1.77167433	     -0.12010575	      0.97328343	      0.30321393	     -8.54526857	      3.25769495	     -1.24281943	    -20.60608753	     16.70114417	     -1.12071380	      1.14177748	     26.61885096	      2.72731347	     -1.97998035	    -15.75345421	     -2.47448050	     -7.93551988	      4.63453330	      1.42653185	      3.13392716	      7.84530978
      0.95400000	     -1.21104913	      0.32466854	     -1.73486465	     -0.11419482	      0.97311338	      0.30281154	     -8.15413362	      3.07334858	     -1.21531649	    -21.86001381	     16.43004196	     -1.30870239	      1.19173314	     26.53372323	      2.96510393	     -1.80422773	    -16.05377754	     -2.76422400	     -8.24134939	      4.62840226	      1.57120076	      2.96755142	      7.79661700
      0.95816667	     -1.28135565	      0.45400914	     -1.68028640	     -0.10830050	      0.97298075	      0.30236399	     -7.72689573	      2.88282487	     -1.26451802	    -23.18904300	     16.07027799	     -1.36700091	      1.31580016	     26.44714353	      3.20615481	     -1.60995679	    -16.38890987	     -3.04557362	     -8.67234184	      4.62972416	      1.70829011	      2.80388777	      7.72730677
